<?xml version="1.0" encoding="UTF-8" standalone="no"?>
<!DOCTYPE svg PUBLIC "-//W3C//DTD SVG 1.1//EN"
 "http://www.w3.org/Graphics/SVG/1.1/DTD/svg11.dtd">
<!-- Generated by graphviz version 2.40.1 (20161225.0304)
 -->
<!-- Title: G Pages: 1 -->
<svg width="452pt" height="544pt"
 viewBox="0.00 0.00 451.50 544.00" xmlns="http://www.w3.org/2000/svg" xmlns:xlink="http://www.w3.org/1999/xlink">
<g id="graph0" class="graph" transform="scale(1 1) rotate(0) translate(4 540)">
<title>G</title>
<polygon fill="#ffffff" stroke="transparent" points="-4,4 -4,-540 447.5,-540 447.5,4 -4,4"/>
<!-- A0 -->
<g id="node1" class="node">
<title>A0</title>
<polygon fill="none" stroke="#000000" points="181.5,-330 181.5,-362 277.5,-362 277.5,-330 181.5,-330"/>
<text text-anchor="start" x="210.1835" y="-343" font-family="Helvetica,sans-Serif" font-size="10.00" fill="#000000">+A:Song</text>
<polygon fill="none" stroke="#000000" points="181.5,-262 181.5,-330 277.5,-330 277.5,-262 181.5,-262"/>
<text text-anchor="start" x="210.189" y="-311" font-family="Helvetica,sans-Serif" font-size="10.00" fill="#000000">+year:int</text>
<text text-anchor="start" x="201.585" y="-299" font-family="Helvetica,sans-Serif" font-size="10.00" fill="#000000">+lyrics:string</text>
<text text-anchor="start" x="191.0215" y="-287" font-family="Helvetica,sans-Serif" font-size="10.00" fill="#000000">+composer:string</text>
<text text-anchor="start" x="202.136" y="-275" font-family="Helvetica,sans-Serif" font-size="10.00" fill="#000000">+artist:string</text>
<polygon fill="none" stroke="#000000" points="181.5,-182 181.5,-262 277.5,-262 277.5,-182 181.5,-182"/>
<text text-anchor="start" x="199.6355" y="-243" font-family="Helvetica,sans-Serif" font-size="10.00" fill="#000000">+Name:string</text>
<text text-anchor="start" x="209.359" y="-231" font-family="Helvetica,sans-Serif" font-size="10.00" fill="#000000">+Play():a</text>
<text text-anchor="start" x="207.6935" y="-219" font-family="Helvetica,sans-Serif" font-size="10.00" fill="#000000">+Copy():v</text>
<text text-anchor="start" x="208.8035" y="-207" font-family="Helvetica,sans-Serif" font-size="10.00" fill="#000000">+Dance()</text>
<text text-anchor="start" x="213.2485" y="-195" font-family="Helvetica,sans-Serif" font-size="10.00" fill="#000000">+Sing()</text>
</g>
<!-- A1 -->
<g id="node2" class="node">
<title>A1</title>
<polygon fill="none" stroke="#000000" points=".5,-94 .5,-126 99.5,-126 99.5,-94 .5,-94"/>
<text text-anchor="start" x="24.0145" y="-107" font-family="Helvetica,sans-Serif" font-size="10.00" fill="#000000">+TapeSong</text>
<polygon fill="none" stroke="#000000" points=".5,-38 .5,-94 99.5,-94 99.5,-38 .5,-38"/>
<text text-anchor="start" x="10.4075" y="-75" font-family="Helvetica,sans-Serif" font-size="10.00" fill="#000000">+tapeName:string</text>
<text text-anchor="start" x="31.244" y="-63" font-family="Helvetica,sans-Serif" font-size="10.00" fill="#000000">+side:int</text>
<text text-anchor="start" x="23.7405" y="-51" font-family="Helvetica,sans-Serif" font-size="10.00" fill="#000000">+counter:int</text>
<polygon fill="none" stroke="#000000" points=".5,-6 .5,-38 99.5,-38 99.5,-6 .5,-6"/>
<text text-anchor="start" x="29.859" y="-19" font-family="Helvetica,sans-Serif" font-size="10.00" fill="#000000">+Play():o</text>
</g>
<!-- A0&#45;&gt;A1 -->
<g id="edge1" class="edge">
<title>A0&#45;&gt;A1</title>
<path fill="none" stroke="#000000" stroke-dasharray="5,2" d="M174.8279,-209.4309C150.7716,-181.8997 122.7126,-149.7877 99.2499,-122.936"/>
<polygon fill="#000000" stroke="#000000" points="181.4998,-217.0664 171.5312,-212.497 178.2098,-213.3012 174.9199,-209.5361 174.9199,-209.5361 174.9199,-209.5361 178.2098,-213.3012 178.3085,-206.5751 181.4998,-217.0664 181.4998,-217.0664"/>
</g>
<!-- A2 -->
<g id="node3" class="node">
<title>A2</title>
<polygon fill="none" stroke="#000000" points="117.5,-100 117.5,-132 225.5,-132 225.5,-100 117.5,-100"/>
<text text-anchor="start" x="146.0745" y="-113" font-family="Helvetica,sans-Serif" font-size="10.00" fill="#000000">+VinylSong</text>
<polygon fill="none" stroke="#000000" points="117.5,-44 117.5,-100 225.5,-100 225.5,-44 117.5,-44"/>
<text text-anchor="start" x="127.468" y="-81" font-family="Helvetica,sans-Serif" font-size="10.00" fill="#000000">+recordName:string</text>
<text text-anchor="start" x="152.744" y="-69" font-family="Helvetica,sans-Serif" font-size="10.00" fill="#000000">+side:int</text>
<text text-anchor="start" x="151.079" y="-57" font-family="Helvetica,sans-Serif" font-size="10.00" fill="#000000">+track:int</text>
<polygon fill="none" stroke="#000000" points="117.5,0 117.5,-44 225.5,-44 225.5,0 117.5,0"/>
<text text-anchor="start" x="151.359" y="-25" font-family="Helvetica,sans-Serif" font-size="10.00" fill="#000000">+Play():o</text>
<text text-anchor="start" x="152.194" y="-13" font-family="Helvetica,sans-Serif" font-size="10.00" fill="#000000">+Clean()</text>
</g>
<!-- A0&#45;&gt;A2 -->
<g id="edge2" class="edge">
<title>A0&#45;&gt;A2</title>
<path fill="none" stroke="#000000" stroke-dasharray="5,2" d="M201.3651,-172.0727C197.5377,-158.4787 193.6901,-144.8133 190.0895,-132.0247"/>
<polygon fill="#000000" stroke="#000000" points="204.1447,-181.9451 197.1029,-173.5389 202.7896,-177.1322 201.4345,-172.3193 201.4345,-172.3193 201.4345,-172.3193 202.7896,-177.1322 205.7661,-171.0997 204.1447,-181.9451 204.1447,-181.9451"/>
</g>
<!-- A3 -->
<g id="node4" class="node">
<title>A3</title>
<polygon fill="none" stroke="#000000" points="243.5,-88 243.5,-120 333.5,-120 333.5,-88 243.5,-88"/>
<text text-anchor="start" x="266.6885" y="-101" font-family="Helvetica,sans-Serif" font-size="10.00" fill="#000000">+CDSong</text>
<polygon fill="none" stroke="#000000" points="243.5,-44 243.5,-88 333.5,-88 333.5,-44 243.5,-44"/>
<text text-anchor="start" x="253.356" y="-69" font-family="Helvetica,sans-Serif" font-size="10.00" fill="#000000">+cdName:string</text>
<text text-anchor="start" x="268.079" y="-57" font-family="Helvetica,sans-Serif" font-size="10.00" fill="#000000">+track:int</text>
<polygon fill="none" stroke="#000000" points="243.5,-12 243.5,-44 333.5,-44 333.5,-12 243.5,-12"/>
<text text-anchor="start" x="268.359" y="-25" font-family="Helvetica,sans-Serif" font-size="10.00" fill="#000000">+Play():o</text>
</g>
<!-- A0&#45;&gt;A3 -->
<g id="edge3" class="edge">
<title>A0&#45;&gt;A3</title>
<path fill="none" stroke="#000000" stroke-dasharray="5,2" d="M258.1382,-172.0089C263.2743,-154.0762 268.4452,-136.0219 273.0275,-120.0226"/>
<polygon fill="#000000" stroke="#000000" points="255.2924,-181.9451 253.7198,-171.0925 256.6692,-177.1383 258.0459,-172.3316 258.0459,-172.3316 258.0459,-172.3316 256.6692,-177.1383 262.3719,-173.5706 255.2924,-181.9451 255.2924,-181.9451"/>
</g>
<!-- A4 -->
<g id="node5" class="node">
<title>A4</title>
<polygon fill="none" stroke="#000000" points="351.5,-88 351.5,-120 443.5,-120 443.5,-88 351.5,-88"/>
<text text-anchor="start" x="372.629" y="-101" font-family="Helvetica,sans-Serif" font-size="10.00" fill="#000000">+MP3Song</text>
<polygon fill="none" stroke="#000000" points="351.5,-56 351.5,-88 443.5,-88 443.5,-56 351.5,-56"/>
<text text-anchor="start" x="361.2475" y="-69" font-family="Helvetica,sans-Serif" font-size="10.00" fill="#000000">+fileName:string</text>
<polygon fill="none" stroke="#000000" points="351.5,-12 351.5,-56 443.5,-56 443.5,-12 351.5,-12"/>
<text text-anchor="start" x="377.359" y="-37" font-family="Helvetica,sans-Serif" font-size="10.00" fill="#000000">+Play():o</text>
<text text-anchor="start" x="375.414" y="-25" font-family="Helvetica,sans-Serif" font-size="10.00" fill="#000000">+Copy():o</text>
</g>
<!-- A0&#45;&gt;A4 -->
<g id="edge4" class="edge">
<title>A0&#45;&gt;A4</title>
<path fill="none" stroke="#000000" stroke-dasharray="5,2" d="M283.735,-186.551C284.983,-185.008 286.2386,-183.4894 287.5,-182 308.8508,-156.7909 319.6487,-155.8574 342.5,-132 346.111,-128.23 349.7627,-124.2572 353.3765,-120.2074"/>
<polygon fill="#000000" stroke="#000000" points="277.5655,-194.4457 280.1773,-183.7954 280.6443,-190.506 283.7231,-186.5663 283.7231,-186.5663 283.7231,-186.5663 280.6443,-190.506 287.2688,-189.3372 277.5655,-194.4457 277.5655,-194.4457"/>
</g>
<!-- A5 -->
<g id="node6" class="node">
<title>A5</title>
<polygon fill="none" stroke="#000000" points="296.5,-294 296.5,-326 375.5,-326 375.5,-294 296.5,-294"/>
<text text-anchor="start" x="319.4675" y="-307" font-family="Helvetica,sans-Serif" font-size="10.00" fill="#000000">+Game</text>
<polygon fill="none" stroke="#000000" points="296.5,-262 296.5,-294 375.5,-294 375.5,-262 296.5,-262"/>
<text text-anchor="start" x="310.3" y="-275" font-family="Helvetica,sans-Serif" font-size="10.00" fill="#000000">+players:int</text>
<polygon fill="none" stroke="#000000" points="296.5,-218 296.5,-262 375.5,-262 375.5,-218 296.5,-218"/>
<text text-anchor="start" x="306.1355" y="-243" font-family="Helvetica,sans-Serif" font-size="10.00" fill="#000000">+Name:string</text>
<text text-anchor="start" x="315.859" y="-231" font-family="Helvetica,sans-Serif" font-size="10.00" fill="#000000">+Play():a</text>
</g>
<!-- A6 -->
<g id="node7" class="node">
<title>A6</title>
<polygon fill="none" stroke="#000000" points="193.5,-504 193.5,-536 266.5,-536 266.5,-504 193.5,-504"/>
<text text-anchor="start" x="214.018" y="-517" font-family="Helvetica,sans-Serif" font-size="10.00" fill="#000000">+ISong</text>
<polygon fill="none" stroke="#000000" points="193.5,-412 193.5,-504 266.5,-504 266.5,-412 193.5,-412"/>
<text text-anchor="start" x="205.0045" y="-485" font-family="Helvetica,sans-Serif" font-size="10.00" fill="#000000">lyrics:string</text>
<text text-anchor="start" x="203.055" y="-473" font-family="Helvetica,sans-Serif" font-size="10.00" fill="#000000">Name:string</text>
<text text-anchor="start" x="216.9475" y="-461" font-family="Helvetica,sans-Serif" font-size="10.00" fill="#000000">Play()</text>
<text text-anchor="start" x="216.668" y="-449" font-family="Helvetica,sans-Serif" font-size="10.00" fill="#000000">Sing()</text>
<text text-anchor="start" x="212.223" y="-437" font-family="Helvetica,sans-Serif" font-size="10.00" fill="#000000">Dance()</text>
<text text-anchor="start" x="215.0025" y="-425" font-family="Helvetica,sans-Serif" font-size="10.00" fill="#000000">Copy()</text>
</g>
<!-- A6&#45;&gt;A0 -->
<g id="edge5" class="edge">
<title>A6&#45;&gt;A0</title>
<path fill="none" stroke="#000000" d="M229.5,-401.664C229.5,-388.8939 229.5,-375.4572 229.5,-362.2675"/>
<polygon fill="none" stroke="#000000" points="226.0001,-401.745 229.5,-411.7451 233.0001,-401.7451 226.0001,-401.745"/>
</g>
<!-- A7 -->
<g id="node8" class="node">
<title>A7</title>
<polygon fill="none" stroke="#000000" points="291.5,-480 291.5,-512 364.5,-512 364.5,-480 291.5,-480"/>
<text text-anchor="start" x="313.9675" y="-493" font-family="Helvetica,sans-Serif" font-size="10.00" fill="#000000">+IPlay</text>
<polygon fill="none" stroke="#000000" points="291.5,-436 291.5,-480 364.5,-480 364.5,-436 291.5,-436"/>
<text text-anchor="start" x="301.055" y="-461" font-family="Helvetica,sans-Serif" font-size="10.00" fill="#000000">Name:string</text>
<text text-anchor="start" x="314.9475" y="-449" font-family="Helvetica,sans-Serif" font-size="10.00" fill="#000000">Play()</text>
</g>
<!-- A7&#45;&gt;A0 -->
<g id="edge6" class="edge">
<title>A7&#45;&gt;A0</title>
<path fill="none" stroke="#000000" d="M304.413,-426.4125C295.0968,-407.2097 284.0261,-384.3906 273.2926,-362.2663"/>
<polygon fill="none" stroke="#000000" points="301.3223,-428.0605 308.8363,-435.5299 307.6203,-425.005 301.3223,-428.0605"/>
</g>
<!-- A7&#45;&gt;A5 -->
<g id="edge7" class="edge">
<title>A7&#45;&gt;A5</title>
<path fill="none" stroke="#000000" d="M329.4269,-425.347C330.6093,-395.4904 332.1258,-357.1998 333.3475,-326.3502"/>
<polygon fill="none" stroke="#000000" points="325.9221,-425.3992 329.0236,-435.5299 332.9167,-425.6762 325.9221,-425.3992"/>
</g>
</g>
</svg>
