<?xml version="1.0" encoding="UTF-8" standalone="no"?>
<!DOCTYPE svg PUBLIC "-//W3C//DTD SVG 1.1//EN"
 "http://www.w3.org/Graphics/SVG/1.1/DTD/svg11.dtd">
<!-- Generated by graphviz version 2.40.1 (20161225.0304)
 -->
<!-- Title: G Pages: 1 -->
<svg width="452pt" height="532pt"
 viewBox="0.00 0.00 451.50 532.00" xmlns="http://www.w3.org/2000/svg" xmlns:xlink="http://www.w3.org/1999/xlink">
<g id="graph0" class="graph" transform="scale(1 1) rotate(0) translate(4 528)">
<title>G</title>
<polygon fill="#ffffff" stroke="transparent" points="-4,4 -4,-528 447.5,-528 447.5,4 -4,4"/>
<!-- A0 -->
<g id="node1" class="node">
<title>A0</title>
<polygon fill="none" stroke="#000000" points="181.5,-318 181.5,-350 277.5,-350 277.5,-318 181.5,-318"/>
<text text-anchor="start" x="210.1835" y="-331" font-family="Helvetica,sans-Serif" font-size="10.00" fill="#000000">+A:Song</text>
<polygon fill="none" stroke="#000000" points="181.5,-250 181.5,-318 277.5,-318 277.5,-250 181.5,-250"/>
<text text-anchor="start" x="210.189" y="-299" font-family="Helvetica,sans-Serif" font-size="10.00" fill="#000000">+year:int</text>
<text text-anchor="start" x="201.585" y="-287" font-family="Helvetica,sans-Serif" font-size="10.00" fill="#000000">+lyrics:string</text>
<text text-anchor="start" x="191.0215" y="-275" font-family="Helvetica,sans-Serif" font-size="10.00" fill="#000000">+composer:string</text>
<text text-anchor="start" x="202.136" y="-263" font-family="Helvetica,sans-Serif" font-size="10.00" fill="#000000">+artist:string</text>
<polygon fill="none" stroke="#000000" points="181.5,-170 181.5,-250 277.5,-250 277.5,-170 181.5,-170"/>
<text text-anchor="start" x="199.6355" y="-231" font-family="Helvetica,sans-Serif" font-size="10.00" fill="#000000">+Name:string</text>
<text text-anchor="start" x="209.359" y="-219" font-family="Helvetica,sans-Serif" font-size="10.00" fill="#000000">+Play():a</text>
<text text-anchor="start" x="207.6935" y="-207" font-family="Helvetica,sans-Serif" font-size="10.00" fill="#000000">+Copy():v</text>
<text text-anchor="start" x="208.8035" y="-195" font-family="Helvetica,sans-Serif" font-size="10.00" fill="#000000">+Dance()</text>
<text text-anchor="start" x="213.2485" y="-183" font-family="Helvetica,sans-Serif" font-size="10.00" fill="#000000">+Sing()</text>
</g>
<!-- A1 -->
<g id="node2" class="node">
<title>A1</title>
<polygon fill="none" stroke="#000000" points=".5,-88 .5,-120 99.5,-120 99.5,-88 .5,-88"/>
<text text-anchor="start" x="24.0145" y="-101" font-family="Helvetica,sans-Serif" font-size="10.00" fill="#000000">+TapeSong</text>
<polygon fill="none" stroke="#000000" points=".5,-32 .5,-88 99.5,-88 99.5,-32 .5,-32"/>
<text text-anchor="start" x="10.4075" y="-69" font-family="Helvetica,sans-Serif" font-size="10.00" fill="#000000">+tapeName:string</text>
<text text-anchor="start" x="31.244" y="-57" font-family="Helvetica,sans-Serif" font-size="10.00" fill="#000000">+side:int</text>
<text text-anchor="start" x="23.7405" y="-45" font-family="Helvetica,sans-Serif" font-size="10.00" fill="#000000">+counter:int</text>
<polygon fill="none" stroke="#000000" points=".5,0 .5,-32 99.5,-32 99.5,0 .5,0"/>
<text text-anchor="start" x="29.859" y="-13" font-family="Helvetica,sans-Serif" font-size="10.00" fill="#000000">+Play():o</text>
</g>
<!-- A0&#45;&gt;A1 -->
<g id="edge1" class="edge">
<title>A0&#45;&gt;A1</title>
<path fill="none" stroke="#000000" stroke-dasharray="5,2" d="M174.5193,-198.9103C150.5319,-172.2577 122.6123,-141.2359 99.2499,-115.2777"/>
<polygon fill="#000000" stroke="#000000" points="181.4998,-206.6664 171.4652,-202.2438 178.1549,-202.9499 174.8101,-199.2334 174.8101,-199.2334 174.8101,-199.2334 178.1549,-202.9499 178.1549,-196.2231 181.4998,-206.6664 181.4998,-206.6664"/>
</g>
<!-- A2 -->
<g id="node3" class="node">
<title>A2</title>
<polygon fill="none" stroke="#000000" points="117.5,-88 117.5,-120 225.5,-120 225.5,-88 117.5,-88"/>
<text text-anchor="start" x="146.0745" y="-101" font-family="Helvetica,sans-Serif" font-size="10.00" fill="#000000">+VinylSong</text>
<polygon fill="none" stroke="#000000" points="117.5,-32 117.5,-88 225.5,-88 225.5,-32 117.5,-32"/>
<text text-anchor="start" x="127.468" y="-69" font-family="Helvetica,sans-Serif" font-size="10.00" fill="#000000">+recordName:string</text>
<text text-anchor="start" x="152.744" y="-57" font-family="Helvetica,sans-Serif" font-size="10.00" fill="#000000">+side:int</text>
<text text-anchor="start" x="151.079" y="-45" font-family="Helvetica,sans-Serif" font-size="10.00" fill="#000000">+track:int</text>
<polygon fill="none" stroke="#000000" points="117.5,0 117.5,-32 225.5,-32 225.5,0 117.5,0"/>
<text text-anchor="start" x="151.359" y="-13" font-family="Helvetica,sans-Serif" font-size="10.00" fill="#000000">+Play():o</text>
</g>
<!-- A0&#45;&gt;A2 -->
<g id="edge2" class="edge">
<title>A0&#45;&gt;A2</title>
<path fill="none" stroke="#000000" stroke-dasharray="5,2" d="M200.5042,-160.0146C196.543,-146.355 192.5816,-132.6951 188.9157,-120.0542"/>
<polygon fill="#000000" stroke="#000000" points="203.3844,-169.9463 196.2772,-161.5954 201.9918,-165.1441 200.5991,-160.342 200.5991,-160.342 200.5991,-160.342 201.9918,-165.1441 204.921,-159.0886 203.3844,-169.9463 203.3844,-169.9463"/>
</g>
<!-- A3 -->
<g id="node4" class="node">
<title>A3</title>
<polygon fill="none" stroke="#000000" points="243.5,-82 243.5,-114 333.5,-114 333.5,-82 243.5,-82"/>
<text text-anchor="start" x="266.6885" y="-95" font-family="Helvetica,sans-Serif" font-size="10.00" fill="#000000">+CDSong</text>
<polygon fill="none" stroke="#000000" points="243.5,-38 243.5,-82 333.5,-82 333.5,-38 243.5,-38"/>
<text text-anchor="start" x="253.356" y="-63" font-family="Helvetica,sans-Serif" font-size="10.00" fill="#000000">+cdName:string</text>
<text text-anchor="start" x="268.079" y="-51" font-family="Helvetica,sans-Serif" font-size="10.00" fill="#000000">+track:int</text>
<polygon fill="none" stroke="#000000" points="243.5,-6 243.5,-38 333.5,-38 333.5,-6 243.5,-6"/>
<text text-anchor="start" x="268.359" y="-19" font-family="Helvetica,sans-Serif" font-size="10.00" fill="#000000">+Play():o</text>
</g>
<!-- A0&#45;&gt;A3 -->
<g id="edge3" class="edge">
<title>A0&#45;&gt;A3</title>
<path fill="none" stroke="#000000" stroke-dasharray="5,2" d="M258.9762,-160.0805C263.6575,-144.212 268.3395,-128.3408 272.5508,-114.0652"/>
<polygon fill="#000000" stroke="#000000" points="256.0658,-169.9463 254.5792,-159.0816 257.4806,-165.1506 258.8954,-160.3549 258.8954,-160.3549 258.8954,-160.3549 257.4806,-165.1506 263.2115,-161.6282 256.0658,-169.9463 256.0658,-169.9463"/>
</g>
<!-- A4 -->
<g id="node5" class="node">
<title>A4</title>
<polygon fill="none" stroke="#000000" points="351.5,-82 351.5,-114 443.5,-114 443.5,-82 351.5,-82"/>
<text text-anchor="start" x="372.629" y="-95" font-family="Helvetica,sans-Serif" font-size="10.00" fill="#000000">+MP3Song</text>
<polygon fill="none" stroke="#000000" points="351.5,-50 351.5,-82 443.5,-82 443.5,-50 351.5,-50"/>
<text text-anchor="start" x="361.2475" y="-63" font-family="Helvetica,sans-Serif" font-size="10.00" fill="#000000">+fileName:string</text>
<polygon fill="none" stroke="#000000" points="351.5,-6 351.5,-50 443.5,-50 443.5,-6 351.5,-6"/>
<text text-anchor="start" x="377.359" y="-31" font-family="Helvetica,sans-Serif" font-size="10.00" fill="#000000">+Play():o</text>
<text text-anchor="start" x="375.414" y="-19" font-family="Helvetica,sans-Serif" font-size="10.00" fill="#000000">+Copy():o</text>
</g>
<!-- A0&#45;&gt;A4 -->
<g id="edge4" class="edge">
<title>A0&#45;&gt;A4</title>
<path fill="none" stroke="#000000" stroke-dasharray="5,2" d="M283.735,-174.551C284.983,-173.008 286.2386,-171.4894 287.5,-170 308.8508,-144.7909 319.092,-143.3115 342.5,-120 345.4037,-117.1083 348.3553,-114.1018 351.3067,-111.0436"/>
<polygon fill="#000000" stroke="#000000" points="277.5655,-182.4457 280.1773,-171.7954 280.6443,-178.506 283.7231,-174.5663 283.7231,-174.5663 283.7231,-174.5663 280.6443,-178.506 287.2688,-177.3372 277.5655,-182.4457 277.5655,-182.4457"/>
</g>
<!-- A5 -->
<g id="node6" class="node">
<title>A5</title>
<polygon fill="none" stroke="#000000" points="296.5,-282 296.5,-314 375.5,-314 375.5,-282 296.5,-282"/>
<text text-anchor="start" x="319.4675" y="-295" font-family="Helvetica,sans-Serif" font-size="10.00" fill="#000000">+Game</text>
<polygon fill="none" stroke="#000000" points="296.5,-250 296.5,-282 375.5,-282 375.5,-250 296.5,-250"/>
<text text-anchor="start" x="310.3" y="-263" font-family="Helvetica,sans-Serif" font-size="10.00" fill="#000000">+players:int</text>
<polygon fill="none" stroke="#000000" points="296.5,-206 296.5,-250 375.5,-250 375.5,-206 296.5,-206"/>
<text text-anchor="start" x="306.1355" y="-231" font-family="Helvetica,sans-Serif" font-size="10.00" fill="#000000">+Name:string</text>
<text text-anchor="start" x="315.859" y="-219" font-family="Helvetica,sans-Serif" font-size="10.00" fill="#000000">+Play():a</text>
</g>
<!-- A6 -->
<g id="node7" class="node">
<title>A6</title>
<polygon fill="none" stroke="#000000" points="193.5,-492 193.5,-524 266.5,-524 266.5,-492 193.5,-492"/>
<text text-anchor="start" x="214.018" y="-505" font-family="Helvetica,sans-Serif" font-size="10.00" fill="#000000">+ISong</text>
<polygon fill="none" stroke="#000000" points="193.5,-400 193.5,-492 266.5,-492 266.5,-400 193.5,-400"/>
<text text-anchor="start" x="205.0045" y="-473" font-family="Helvetica,sans-Serif" font-size="10.00" fill="#000000">lyrics:string</text>
<text text-anchor="start" x="203.055" y="-461" font-family="Helvetica,sans-Serif" font-size="10.00" fill="#000000">Name:string</text>
<text text-anchor="start" x="216.9475" y="-449" font-family="Helvetica,sans-Serif" font-size="10.00" fill="#000000">Play()</text>
<text text-anchor="start" x="216.668" y="-437" font-family="Helvetica,sans-Serif" font-size="10.00" fill="#000000">Sing()</text>
<text text-anchor="start" x="212.223" y="-425" font-family="Helvetica,sans-Serif" font-size="10.00" fill="#000000">Dance()</text>
<text text-anchor="start" x="215.0025" y="-413" font-family="Helvetica,sans-Serif" font-size="10.00" fill="#000000">Copy()</text>
</g>
<!-- A6&#45;&gt;A0 -->
<g id="edge5" class="edge">
<title>A6&#45;&gt;A0</title>
<path fill="none" stroke="#000000" d="M229.5,-389.664C229.5,-376.8939 229.5,-363.4572 229.5,-350.2675"/>
<polygon fill="none" stroke="#000000" points="226.0001,-389.745 229.5,-399.7451 233.0001,-389.7451 226.0001,-389.745"/>
</g>
<!-- A7 -->
<g id="node8" class="node">
<title>A7</title>
<polygon fill="none" stroke="#000000" points="291.5,-468 291.5,-500 364.5,-500 364.5,-468 291.5,-468"/>
<text text-anchor="start" x="313.9675" y="-481" font-family="Helvetica,sans-Serif" font-size="10.00" fill="#000000">+IPlay</text>
<polygon fill="none" stroke="#000000" points="291.5,-424 291.5,-468 364.5,-468 364.5,-424 291.5,-424"/>
<text text-anchor="start" x="301.055" y="-449" font-family="Helvetica,sans-Serif" font-size="10.00" fill="#000000">Name:string</text>
<text text-anchor="start" x="314.9475" y="-437" font-family="Helvetica,sans-Serif" font-size="10.00" fill="#000000">Play()</text>
</g>
<!-- A7&#45;&gt;A0 -->
<g id="edge6" class="edge">
<title>A7&#45;&gt;A0</title>
<path fill="none" stroke="#000000" d="M304.413,-414.4125C295.0968,-395.2097 284.0261,-372.3906 273.2926,-350.2663"/>
<polygon fill="none" stroke="#000000" points="301.3223,-416.0605 308.8363,-423.5299 307.6203,-413.005 301.3223,-416.0605"/>
</g>
<!-- A7&#45;&gt;A5 -->
<g id="edge7" class="edge">
<title>A7&#45;&gt;A5</title>
<path fill="none" stroke="#000000" d="M329.4269,-413.347C330.6093,-383.4904 332.1258,-345.1998 333.3475,-314.3502"/>
<polygon fill="none" stroke="#000000" points="325.9221,-413.3992 329.0236,-423.5299 332.9167,-413.6762 325.9221,-413.3992"/>
</g>
</g>
</svg>
